<?xml version="1.0" encoding="utf-8"?>
<!-- Generator: Adobe Illustrator 24.2.3, SVG Export Plug-In . SVG Version: 6.00 Build 0)  -->
<svg version="1.1" xmlns="http://www.w3.org/2000/svg" xmlns:xlink="http://www.w3.org/1999/xlink" x="0px" y="0px"
	 viewBox="0 0 520.2 340.2" style="enable-background:new 0 0 520.2 340.2;" xml:space="preserve">
<style type="text/css">
	.st0{opacity:0.5;}
	.st1{fill:#FFFFFF;}
	.st2{fill:#282828;}
	.st3{fill:#8EA9E8;}
	.st4{fill:#FF1200;}
</style>
<g id="hg" class="st0">
	<path class="st1" d="M332.2,153.8c-2.1-2.1-4.5-3.8-7.2-5c0.3-0.6,0.6-1.2,0.8-1.8c1.7-5,0.4-10.4-3-14.4c0.4-4.5-2.4-8.8-6.8-10.4
		c-2.6-0.9-5.3-0.7-7.7,0.5c-1.7,0.9-3.1,2.2-4.1,3.8c-5,1.3-9.1,4.7-10.7,9.6c-1.6,4.8-0.5,9.9,2.6,13.9l-0.7,2
		c-1.4-1.3-3-2.4-4.7-3.3l0,0l0,0c-3.1-1.5-6.4-2.3-9.8-2.3c-0.5,0-1,0-1.5,0.1C264.3,102.6,222.9,71,174,71
		c-61.3,0-111,49.7-111,111s49.7,111,111,111c34.9,0,66-16.1,86.3-41.2c1.4,2.2,3.3,4.1,5.5,5.6c3.8,2.6,8.3,4,13.1,4
		c7.4,0,14-1.9,19.6-5.7c4.7-3.2,8.7-7.3,11.8-12.2c2.3-3.7,4.4-7.8,6.1-12.2c1.3-3.4,2.5-6.6,3.7-9.7l16.9-44.9
		c1-2.5,1.5-5.1,1.5-7.9C338.4,163.2,336.2,157.9,332.2,153.8z M317,165c-0.5-0.2-0.9-0.4-1.3-0.5C316.1,164.6,316.6,164.8,317,165
		c0.9,0.4,1.7,0.9,2.4,1.6C318.8,165.9,318,165.4,317,165z M320.2,170c0.1-0.3,0.2-0.7,0.2-1.1c0-0.7-0.2-1.3-0.6-1.8
		c0.4,0.5,0.6,1.2,0.6,1.8C320.4,169.4,320.4,169.7,320.2,170z"/>
</g>
<g id="_x30_3">
	<g>
		<line x1="312.7" y1="131.8" x2="299.4" y2="171.1"/>
		<path d="M299.4,172.2c-0.1,0-0.2,0-0.4-0.1c-0.6-0.2-0.9-0.8-0.7-1.4l13.3-39.3c0.2-0.6,0.8-0.9,1.4-0.7c0.6,0.2,0.9,0.8,0.7,1.4
			l-13.3,39.3C300.3,171.9,299.9,172.2,299.4,172.2z"/>
	</g>
	<g>
		<g>
			<path class="st2" d="M123.7,217.9c-1.3,0-2.3-0.3-3.2-0.9c-0.9-0.6-1.3-1.4-1.3-2.3V154c0-3.9,0.9-7.4,2.7-10.5
				c1.8-3.2,4.2-5.7,7.2-7.5c3-1.9,6.3-2.8,9.9-2.8h3.9c1.2,0,2.1,0.4,2.8,1.2c0.7,0.8,1,1.8,1,2.9c0,1-0.3,2-1,2.8
				c-0.7,0.8-1.6,1.2-2.8,1.2h-2.3c-2.3,0-4.4,0.5-6.2,1.6c-1.8,1.1-3.3,2.5-4.3,4.3c-1,1.8-1.6,3.8-1.6,6V165h15.3
				c0.9,0,1.6,0.4,2.1,1.1c0.5,0.7,0.8,1.6,0.8,2.6c0,0.9-0.3,1.7-0.8,2.5c-0.5,0.7-1.2,1.1-2.1,1.1h-15.3v42.4c0,1-0.5,1.7-1.4,2.3
				C126,217.6,124.9,217.9,123.7,217.9z"/>
		</g>
		<g>
			<path class="st2" d="M174.2,218.8c-3.9,0-7.6-1-10.9-3c-3.3-2-6-4.7-8-8c-2-3.3-3-6.9-3-10.6v-11.4c0-3.8,1-7.3,3-10.5
				c2-3.2,4.6-5.9,8-7.9c3.3-2,7-3,11-3c3.9,0,7.6,1,10.9,2.9c3.3,1.9,6,4.5,8.1,7.7c2,3.2,3.1,6.8,3.1,10.8v11.4
				c0,3.7-1,7.2-3.1,10.5c-2,3.3-4.7,6-8.1,8C181.7,217.7,178.1,218.8,174.2,218.8z M174.2,210.4c2.4,0,4.5-0.6,6.5-1.9
				c1.9-1.3,3.5-2.9,4.6-5c1.2-2,1.7-4.2,1.7-6.4v-11.4c0-2.2-0.6-4.3-1.7-6.3c-1.2-2-2.7-3.6-4.6-4.9c-1.9-1.3-4.1-1.9-6.5-1.9
				c-2.4,0-4.5,0.6-6.4,1.9c-1.9,1.3-3.4,2.9-4.6,4.9c-1.2,2-1.7,4.1-1.7,6.3v11.4c0,2.2,0.6,4.4,1.7,6.4c1.1,2,2.7,3.7,4.6,5
				C169.7,209.8,171.9,210.4,174.2,210.4z"/>
		</g>
		<g>
			<path class="st2" d="M211.8,217.9c-1.3,0-2.3-0.4-3.2-1.1c-0.9-0.7-1.3-1.5-1.3-2.3v-46.3c0-1,0.4-1.7,1.3-2.3
				c0.9-0.6,1.9-0.9,3.2-0.9c1.3,0,2.3,0.3,3.1,0.9c0.8,0.6,1.2,1.4,1.2,2.3v5.2c0.8-1.6,1.9-3,3.3-4.4c1.4-1.4,3.1-2.5,5-3.4
				c1.9-0.9,4-1.3,6.3-1.3h3.8c1,0,1.8,0.4,2.5,1.2c0.7,0.8,1.1,1.8,1.1,3c0,1.1-0.4,2.1-1.1,2.9c-0.7,0.8-1.5,1.2-2.5,1.2h-3.8
				c-2.4,0-4.6,0.7-6.8,2s-3.9,3.2-5.3,5.6c-1.4,2.4-2.1,5.3-2.1,8.8v25.4c0,0.8-0.5,1.6-1.4,2.3
				C214.3,217.5,213.2,217.9,211.8,217.9z"/>
		</g>
		<g>
			<path class="st2" d="M263.8,217.9c-6,0-10.6-1.3-13.8-4c-3.2-2.7-4.7-7-4.7-12.8v-57.4c0-1,0.5-1.7,1.4-2.3c1-0.6,2-0.9,3.1-0.9
				c1.2,0,2.3,0.3,3.2,0.9c1,0.6,1.4,1.4,1.4,2.3V165h14c0.9,0,1.6,0.4,2.1,1.1c0.5,0.7,0.7,1.6,0.7,2.6c0,1-0.2,1.8-0.7,2.5
				c-0.5,0.7-1.2,1.1-2.1,1.1h-14V201c0,3.2,0.7,5.4,2.1,6.7c1.4,1.3,3.8,2,7.2,2h3.5c1.3,0,2.3,0.4,3,1.2c0.7,0.8,1,1.7,1,2.8
				c0,1-0.3,2-1,2.8c-0.7,0.9-1.7,1.3-3,1.3H263.8z"/>
		</g>
		<g>
			<path class="st2" d="M279,243.4c-1.2,0-2.2-0.3-3-0.8c-0.8-0.6-1.2-1.7-1.2-3.3c0-1,0.2-2,0.6-2.8c0.4-0.8,1.1-1.2,2.1-1.2
				c1.6,0,3.3-0.5,4.9-1.4c1.6-0.9,3.2-2.3,4.7-4.1c1.5-1.8,2.8-4,4-6.4c1.1-2.5,1.9-5.2,2.5-8.1L275,170c-0.2-0.4-0.3-0.9-0.3-1.2
				c0-0.8,0.3-1.6,1-2.2c0.7-0.7,1.5-1.2,2.4-1.6c0.9-0.4,1.8-0.6,2.6-0.6c0.6,0,1.2,0.1,1.8,0.4c0.6,0.3,1,0.8,1.1,1.4l14.8,38.8
				l13.3-38.8c0.2-0.7,0.6-1.2,1.2-1.4c0.6-0.3,1.1-0.4,1.7-0.4c0.7,0,1.6,0.2,2.5,0.6c0.9,0.4,1.7,0.9,2.4,1.6s1,1.4,1,2.3
				c0,0.4-0.1,0.8-0.2,1.1l-17.1,45.4c-1.1,3-2.3,6.2-3.6,9.5c-1.3,3.3-2.8,6.3-4.5,9.1c-1.7,2.8-3.9,5.1-6.5,6.8
				C286,242.5,282.8,243.4,279,243.4z"/>
		</g>
	</g>
	<path class="st3" d="M308.5,168.5l-9.4,26.5c-0.4,1-1.8,1-2.1,0l-9.4-26.5c-0.3-0.7,0.3-1.5,1.1-1.5h18.8
		C308.2,167,308.7,167.8,308.5,168.5z"/>
	<ellipse transform="matrix(0.317 -0.9484 0.9484 0.317 77.1448 390.2593)" class="st4" cx="309.5" cy="141.6" rx="6.5" ry="8.1"/>
	<path class="st3" d="M172.6,275C121,275,79,232.7,79,180.7c0-52,42-94.3,93.6-94.3c31.2,0,60.2,15.5,77.7,41.6
		c0.9,1.4,0.6,3.2-0.8,4.2c-1.4,0.9-3.2,0.6-4.2-0.8C229,107,201.8,92.5,172.6,92.5c-48.3,0-87.6,39.6-87.6,88.3
		s39.3,88.3,87.6,88.3c31.1,0,60.1-16.8,75.8-43.8c0.8-1.4,2.7-1.9,4.1-1.1c1.4,0.8,1.9,2.7,1.1,4.1
		C236.9,257.1,205.8,275,172.6,275z"/>
</g>
</svg>
