<?xml version="1.0" encoding="utf-8"?>
<!-- Generator: Adobe Illustrator 24.2.3, SVG Export Plug-In . SVG Version: 6.00 Build 0)  -->
<svg version="1.1" id="Ebene_1" xmlns="http://www.w3.org/2000/svg" xmlns:xlink="http://www.w3.org/1999/xlink" x="0px" y="0px"
	 viewBox="0 0 600 600" style="enable-background:new 0 0 600 600;" xml:space="preserve">
<style type="text/css">
	.st0{fill:#FFFFFF;}
</style>
<g id="ADNDGq.tif">
	<g>
		<path class="st0" d="M124.6,256.1c2.4,0,4.4,0,6.4,0c29.4,0,58.9,0.1,88.3-0.1c5,0,8.8,1.5,12.4,5.1
			c20.5,20.5,41.2,40.9,61.8,61.4c18,18,35.9,36,53.7,54.1c10.6,10.8,23.2,16.3,38.4,16c11.8-0.2,23.6,0,35.4,0
			c1.8,0,3.5,0.2,5.8,0.3c0,6.7,0,12.9,0,20.1c18.8-13.7,36.8-26.7,55.1-40c-18.5-13.4-36.5-26.5-55.4-40.2c0,7.6,0,13.9,0,20.6
			c-13.7,0-26.9-0.1-40.2,0.1c-4.7,0.1-8.2-1.6-11.5-4.8c-14.1-14.1-28.3-28-42.4-42.1c-24.8-24.8-49.5-49.7-74.2-74.5
			c-10.1-10.2-22.3-15.2-36.7-15.1c-30.6,0.1-61.2,0-91.8,0c-1.6,0-3.2,0.1-4.9,0.2C124.6,230.2,124.6,242.8,124.6,256.1z
			 M292.7,343.8c-9-8.9-18-17.9-27.9-27.7c-10.4,10.7-21.1,21.4-31.4,32.4c-4.5,4.9-9.5,6.9-16.2,6.8c-28.9-0.3-57.8-0.1-86.8-0.1
			c-1.9,0-3.8,0-5.6,0c0,13.5,0,26.2,0,38.9c0.8,0.1,1.3,0.3,1.8,0.3c32.7,0,65.5,0.1,98.2-0.1c11.2-0.1,21.4-3.9,29.5-11.7
			C267.4,370.1,279.8,356.9,292.7,343.8z M315.3,266.9c9.3,9.2,18.4,18.3,27.7,27.6c10.5-10.5,21.2-21.3,32.2-32
			c1.9-1.9,4.6-4.1,7-4.2c14.6-0.4,29.2-0.2,44.4-0.2c0,6.7,0,13,0,20.3c18.9-13.7,36.8-26.7,55.2-40.1
			c-18.4-13.4-36.4-26.4-55.5-40.2c0,7.7,0,13.9,0,20.6c-2.1,0-3.8,0-5.4,0c-12.8,0-25.6-0.1-38.4,0c-12.1,0.1-23,4.2-31.7,12.5
			C338.7,242.8,327.1,254.9,315.3,266.9z"/>
		<path class="st0" d="M124.6,256.1c0-13.4,0-25.9,0-39c1.7-0.1,3.3-0.2,4.9-0.2c30.6,0,61.2,0,91.8,0c14.4,0,26.6,4.9,36.7,15.1
			c24.7,24.9,49.4,49.7,74.2,74.5c14.1,14.1,28.3,28,42.4,42.1c3.3,3.3,6.8,4.9,11.5,4.8c13.3-0.2,26.5-0.1,40.2-0.1
			c0-6.7,0-13,0-20.6c18.9,13.7,37,26.8,55.4,40.2c-18.3,13.3-36.3,26.3-55.1,40c0-7.2,0-13.4,0-20.1c-2.3-0.1-4-0.3-5.8-0.3
			c-11.8,0-23.6-0.2-35.4,0c-15.2,0.3-27.8-5.2-38.4-16c-17.8-18.1-35.7-36.2-53.7-54.1c-20.5-20.5-41.3-40.8-61.8-61.4
			c-3.6-3.6-7.4-5.1-12.4-5.1c-29.4,0.1-58.9,0.1-88.3,0.1C129,256.1,127.1,256.1,124.6,256.1z"/>
		<path class="st0" d="M292.7,343.8c-12.9,13.1-25.3,26.3-38.4,38.8c-8,7.7-18.3,11.6-29.5,11.7c-32.7,0.2-65.5,0.1-98.2,0.1
			c-0.5,0-1-0.2-1.8-0.3c0-12.7,0-25.4,0-38.9c1.8,0,3.7,0,5.6,0c28.9,0,57.8-0.2,86.8,0.1c6.7,0.1,11.6-1.9,16.2-6.8
			c10.3-11.1,21-21.7,31.4-32.4C274.6,325.9,283.7,334.9,292.7,343.8z"/>
		<path class="st0" d="M315.3,266.9c11.8-11.9,23.5-24,35.6-35.6c8.7-8.3,19.6-12.4,31.7-12.5c12.8-0.1,25.6,0,38.4,0
			c1.6,0,3.2,0,5.4,0c0-6.7,0-12.9,0-20.6c19,13.8,37.1,26.9,55.5,40.2c-18.4,13.4-36.4,26.4-55.2,40.1c0-7.3,0-13.7,0-20.3
			c-15.2,0-29.8-0.2-44.4,0.2c-2.4,0.1-5.1,2.3-7,4.2c-10.9,10.7-21.7,21.5-32.2,32C333.7,285.2,324.5,276.1,315.3,266.9z"/>
	</g>
</g>
</svg>
